<?xml version="1.0" encoding="UTF-8"?>
<svg width="64px" height="64px" viewBox="0 0 64 64" version="1.1" xmlns="http://www.w3.org/2000/svg" xmlns:xlink="http://www.w3.org/1999/xlink">
    <title>Manja Storage Connector - icon</title>
    <desc>Extension icon TYPO3 fal_manja</desc>
    <defs>
        <polygon id="path-1" points="0 24 0 0 44 0 44 24"></polygon>
    </defs>
    <g id="Page-1" stroke="none" stroke-width="1" fill="none" fill-rule="evenodd">
        <g id="Extension" fill-rule="nonzero" fill="#006F9C">
            <polygon id="Shape" points="0 0 64 0 64 64 0 64"></polygon>
        </g>
        <g transform="translate(10.000000, 20.000000)">
            <mask id="mask-2" fill="white">
                <use xlink:href="#path-1"></use>
            </mask>
            <g id="Clip-2"></g>
            <path d="M40.4642293,3.03960483 C38.157238,1.07955936 35.1087373,0 31.8797662,0 C28.6507952,0 25.6022945,1.07955936 23.2953032,3.03960483 C22.8193619,3.44404616 22.3868916,3.87615842 22,4.32899108 C21.6131084,3.87615842 21.1805063,3.44404616 20.7045651,3.03960483 C18.3977055,1.07955936 15.3492048,0 12.1202338,0 C8.89139442,0 5.84276202,1.07955936 3.53590247,3.03960483 C1.28871671,4.94889841 0,7.46708341 0,9.94841756 L0,24 C2.63565817,24 4.48093505,20.0657458 4.48093505,20.0657458 L4.48093505,9.94841756 C4.48093505,8.79187795 5.21506754,7.47757475 6.44476911,6.43263682 C7.94122437,5.161217 9.95682842,4.46091974 12.1202338,4.46091974 C14.2836391,4.46091974 16.2992432,5.161217 17.7956984,6.43263682 C19.0254,7.47757475 19.7595325,8.79187795 19.7595325,9.94841756 L19.7595325,20.0657458 C19.7595325,20.0657458 21.4751868,24 24.2404675,24 L24.2404675,9.94841756 C24.2404675,8.79187795 24.9746,7.47757475 26.2043016,6.43263682 C27.7007568,5.161217 29.7163609,4.46091974 31.8797662,4.46091974 C34.0431716,4.46091974 36.0587756,5.161217 37.5552309,6.43263682 C38.7849325,7.47757475 39.519065,8.79187795 39.519065,9.94841756 L39.519065,20.0657458 C39.519065,20.0657458 40.8395286,24 44,24 L44,9.94841756 C44,7.46708341 42.7112833,4.94889841 40.4642293,3.03960483" id="Fill-1" fill="#FFFFFF" mask="url(#mask-2)"></path>
        </g>
    </g>
</svg>